<svg width="35" height="36" viewBox="0 0 35 36" fill="none" xmlns="http://www.w3.org/2000/svg">
<rect y="0.370605" width="35" height="35" rx="17.5" fill="url(#paint0_linear_1_219)"/>
<path d="M27.1663 18.3705C27.1663 13.3105 23.0597 9.20386 17.9997 9.20386C12.9397 9.20386 8.83301 13.3105 8.83301 18.3705C8.83301 22.8072 11.9863 26.5014 16.1663 27.3539V21.1205H14.333V18.3705H16.1663V16.0789C16.1663 14.3097 17.6055 12.8705 19.3747 12.8705H21.6663V15.6205H19.833C19.3288 15.6205 18.9163 16.033 18.9163 16.5372V18.3705H21.6663V21.1205H18.9163V27.4914C23.5455 27.033 27.1663 23.128 27.1663 18.3705Z" fill="white"/>
<defs>
<linearGradient id="paint0_linear_1_219" x1="32.8327" y1="35.3706" x2="3.47104" y2="22.1673" gradientUnits="userSpaceOnUse">
<stop stop-color="#034BDA"/>
<stop offset="1" stop-color="#33A8FF"/>
</linearGradient>
</defs>
</svg>
