<svg width="35" height="36" viewBox="0 0 35 36" fill="none" xmlns="http://www.w3.org/2000/svg">
<rect y="0.370605" width="35" height="35" rx="17.5" fill="url(#paint0_linear_1_216)"/>
<path d="M18.9423 9.20386C19.9736 9.20661 20.497 9.21211 20.9489 9.22494L21.1267 9.23136C21.3321 9.23869 21.5347 9.24786 21.7794 9.25886C22.7547 9.30469 23.4202 9.45869 24.0042 9.68511C24.6092 9.91794 25.1188 10.2333 25.6285 10.742C26.0946 11.2003 26.4553 11.7546 26.6854 12.3664C26.9118 12.9503 27.0658 13.6158 27.1117 14.592C27.1227 14.8359 27.1318 15.0384 27.1392 15.2447L27.1447 15.4225C27.1584 15.8735 27.1639 16.3969 27.1657 17.4282L27.1667 18.112V19.3129C27.1689 19.9815 27.1619 20.6501 27.1456 21.3185L27.1401 21.4964C27.1327 21.7026 27.1236 21.9052 27.1126 22.149C27.0667 23.1253 26.9109 23.7899 26.6854 24.3747C26.4559 24.9868 26.0952 25.5413 25.6285 25.999C25.1701 26.465 24.6159 26.8256 24.0042 27.0559C23.4202 27.2824 22.7547 27.4364 21.7794 27.4822C21.5619 27.4924 21.3443 27.5016 21.1267 27.5097L20.9489 27.5152C20.497 27.528 19.9736 27.5344 18.9423 27.5363L18.2585 27.5372H17.0586C16.3896 27.5395 15.7207 27.5325 15.052 27.5161L14.8742 27.5106C14.6565 27.5024 14.439 27.4929 14.2215 27.4822C13.2462 27.4364 12.5807 27.2824 11.9958 27.0559C11.3841 26.8262 10.83 26.4655 10.3724 25.999C9.90586 25.541 9.54486 24.9866 9.31457 24.3747C9.08816 23.7908 8.93416 23.1253 8.88832 22.149C8.87811 21.9315 8.86894 21.714 8.86082 21.4964L8.85624 21.3185C8.83935 20.6501 8.83171 19.9815 8.83332 19.3129V17.4282C8.83076 16.7596 8.83749 16.091 8.85349 15.4225L8.85991 15.2447C8.86724 15.0384 8.87641 14.8359 8.88741 14.592C8.93324 13.6158 9.08724 12.9512 9.31366 12.3664C9.54384 11.7539 9.90557 11.1995 10.3733 10.742C10.8308 10.2759 11.3845 9.91518 11.9958 9.68511C12.5807 9.45869 13.2452 9.30469 14.2215 9.25886C14.4653 9.24786 14.6688 9.23869 14.8742 9.23136L15.052 9.22586C15.7204 9.20957 16.389 9.20254 17.0577 9.20477L18.9423 9.20386ZM18 13.7872C16.7844 13.7872 15.6186 14.2701 14.7591 15.1296C13.8995 15.9892 13.4167 17.1549 13.4167 18.3705C13.4167 19.5861 13.8995 20.7519 14.7591 21.6114C15.6186 22.471 16.7844 22.9539 18 22.9539C19.2156 22.9539 20.3814 22.471 21.2409 21.6114C22.1004 20.7519 22.5833 19.5861 22.5833 18.3705C22.5833 17.1549 22.1004 15.9892 21.2409 15.1296C20.3814 14.2701 19.2156 13.7872 18 13.7872ZM18 15.6205C18.3611 15.6205 18.7187 15.6915 19.0524 15.8297C19.3861 15.9678 19.6893 16.1703 19.9447 16.4257C20.2001 16.681 20.4027 16.9841 20.5409 17.3177C20.6792 17.6513 20.7504 18.0089 20.7504 18.3701C20.7505 18.7312 20.6794 19.0888 20.5413 19.4225C20.4031 19.7561 20.2006 20.0593 19.9453 20.3147C19.69 20.5701 19.3869 20.7728 19.0533 20.911C18.7196 21.0493 18.362 21.1205 18.0009 21.1205C17.2716 21.1205 16.5721 20.8308 16.0564 20.3151C15.5406 19.7993 15.2509 19.0999 15.2509 18.3705C15.2509 17.6412 15.5406 16.9417 16.0564 16.426C16.5721 15.9103 17.2716 15.6205 18.0009 15.6205M22.8134 12.4122C22.5095 12.4122 22.2181 12.5329 22.0032 12.7478C21.7883 12.9627 21.6676 13.2541 21.6676 13.558C21.6676 13.8619 21.7883 14.1534 22.0032 14.3683C22.2181 14.5831 22.5095 14.7039 22.8134 14.7039C23.1173 14.7039 23.4087 14.5831 23.6236 14.3683C23.8385 14.1534 23.9592 13.8619 23.9592 13.558C23.9592 13.2541 23.8385 12.9627 23.6236 12.7478C23.4087 12.5329 23.1173 12.4122 22.8134 12.4122Z" fill="white"/>
<defs>
<linearGradient id="paint0_linear_1_216" x1="32.8327" y1="35.3706" x2="3.47104" y2="22.1673" gradientUnits="userSpaceOnUse">
<stop stop-color="#034BDA"/>
<stop offset="1" stop-color="#33A8FF"/>
</linearGradient>
</defs>
</svg>
