<svg width="35" height="36" viewBox="0 0 35 36" fill="none" xmlns="http://www.w3.org/2000/svg">
<rect y="0.370605" width="35" height="35" rx="17.5" fill="url(#paint0_linear_1_213)"/>
<path d="M24.4167 10.1206C24.9029 10.1206 25.3692 10.3138 25.713 10.6576C26.0568 11.0014 26.25 11.4677 26.25 11.9539V24.7873C26.25 25.2735 26.0568 25.7398 25.713 26.0836C25.3692 26.4275 24.9029 26.6206 24.4167 26.6206H11.5833C11.0971 26.6206 10.6308 26.4275 10.287 26.0836C9.94315 25.7398 9.75 25.2735 9.75 24.7873V11.9539C9.75 11.4677 9.94315 11.0014 10.287 10.6576C10.6308 10.3138 11.0971 10.1206 11.5833 10.1206H24.4167ZM23.9583 24.3289V19.4706C23.9583 18.6781 23.6435 17.918 23.0831 17.3575C22.5226 16.7971 21.7626 16.4823 20.97 16.4823C20.1908 16.4823 19.2833 16.9589 18.8433 17.6739V16.6564H16.2858V24.3289H18.8433V19.8098C18.8433 19.1039 19.4117 18.5264 20.1175 18.5264C20.4579 18.5264 20.7843 18.6616 21.025 18.9023C21.2656 19.143 21.4008 19.4694 21.4008 19.8098V24.3289H23.9583ZM13.3067 15.2173C13.7151 15.2173 14.1068 15.055 14.3956 14.7662C14.6844 14.4774 14.8467 14.0857 14.8467 13.6773C14.8467 12.8248 14.1592 12.1281 13.3067 12.1281C12.8958 12.1281 12.5018 12.2913 12.2112 12.5818C11.9207 12.8724 11.7575 13.2664 11.7575 13.6773C11.7575 14.5298 12.4542 15.2173 13.3067 15.2173ZM14.5808 24.3289V16.6564H12.0417V24.3289H14.5808Z" fill="white"/>
<defs>
<linearGradient id="paint0_linear_1_213" x1="32.8327" y1="35.3706" x2="3.47104" y2="22.1673" gradientUnits="userSpaceOnUse">
<stop stop-color="#034BDA"/>
<stop offset="1" stop-color="#33A8FF"/>
</linearGradient>
</defs>
</svg>
